<?xml version="1.0" encoding="UTF-8" standalone="no"?><!DOCTYPE svg PUBLIC "-//W3C//DTD SVG 1.1//EN" "http://www.w3.org/Graphics/SVG/1.1/DTD/svg11.dtd"><svg width="100%" height="100%" viewBox="0 0 632 178" version="1.1" xmlns="http://www.w3.org/2000/svg" xmlns:xlink="http://www.w3.org/1999/xlink" xml:space="preserve" xmlns:serif="http://www.serif.com/" style="fill-rule:evenodd;clip-rule:evenodd;stroke-linejoin:round;stroke-miterlimit:2;"><g><g><path d="M53.85,177.927c-7.4,0 -13.908,-1.183 -19.525,-3.55c-5.617,-2.366 -10.475,-5.583 -14.575,-9.65l-16.2,12.3l-3.55,0l-0,-47.05l3.95,0c1.833,5.467 4.117,10.809 6.85,16.025c2.733,5.217 6.033,9.925 9.9,14.125c3.867,4.2 8.408,7.55 13.625,10.05c5.217,2.5 11.258,3.75 18.125,3.75c6.333,0 11.8,-1.141 16.4,-3.425c4.6,-2.283 8.142,-5.475 10.625,-9.575c2.483,-4.1 3.725,-8.9 3.725,-14.4c0,-5.433 -1.45,-9.975 -4.35,-13.625c-2.9,-3.65 -6.742,-6.8 -11.525,-9.45c-4.783,-2.65 -10.033,-5.15 -15.75,-7.5c-5.717,-2.35 -11.433,-4.9 -17.15,-7.65c-5.717,-2.75 -10.967,-6.066 -15.75,-9.95c-4.783,-3.883 -8.625,-8.675 -11.525,-14.375c-2.9,-5.7 -4.35,-12.683 -4.35,-20.95c0,-8.366 2.067,-15.533 6.2,-21.5c4.133,-5.966 9.583,-10.541 16.35,-13.725c6.767,-3.183 14.067,-4.775 21.9,-4.775c5.967,0 11.5,0.95 16.6,2.85c5.1,1.9 9.65,4.7 13.65,8.4l15.8,-11.25l3.3,0l0,45.1l-3.9,0c-2.667,-8.466 -6.05,-15.758 -10.15,-21.875c-4.1,-6.116 -8.958,-10.808 -14.575,-14.075c-5.617,-3.266 -12.042,-4.9 -19.275,-4.9c-7.933,0 -14.033,1.992 -18.3,5.975c-4.267,3.984 -6.4,9.242 -6.4,15.775c0,4.867 1.442,8.984 4.325,12.35c2.883,3.367 6.692,6.35 11.425,8.95c4.733,2.6 9.942,5.117 15.625,7.55c5.683,2.434 11.358,5.109 17.025,8.025c5.667,2.917 10.867,6.392 15.6,10.425c4.733,4.034 8.542,8.934 11.425,14.7c2.883,5.767 4.325,12.767 4.325,21c0,9.334 -2.2,17.434 -6.6,24.3c-4.4,6.867 -10.367,12.184 -17.9,15.95c-7.533,3.767 -16,5.65 -25.4,5.65Z" style="fill:#ff1e52;fill-rule:nonzero;"/><path d="M158.55,176.427c-6.467,0 -11.408,-1.083 -14.825,-3.25c-3.417,-2.166 -5.767,-5.108 -7.05,-8.825c-1.283,-3.716 -1.925,-7.908 -1.925,-12.575l0,-88.75c4.5,0 9.408,-0.508 14.725,-1.525c5.317,-1.016 9.725,-2.508 13.225,-4.475l0,97.9c0,5 0.592,8.525 1.775,10.575c1.183,2.05 3.175,3.075 5.975,3.075c2.933,0 5.883,-1.241 8.85,-3.725c2.967,-2.483 5.4,-5.858 7.3,-10.125l3.5,1.75c-2.533,5.9 -6.367,10.7 -11.5,14.4c-5.133,3.7 -11.817,5.55 -20.05,5.55Zm-37.8,-89.5l0,-3.9l63.35,0l0,3.9l-63.35,0Z" style="fill:#ff1e52;fill-rule:nonzero;"/><path d="M246.15,132.377c0,-6.7 0.575,-13.108 1.725,-19.225c1.15,-6.116 2.942,-11.583 5.375,-16.4c2.433,-4.816 5.575,-8.625 9.425,-11.425c3.85,-2.8 8.442,-4.2 13.775,-4.2c4.633,0 8.533,0.992 11.7,2.975c3.167,1.984 5.558,4.542 7.175,7.675c1.617,3.134 2.425,6.417 2.425,9.85c0,4.634 -1.517,8.659 -4.55,12.075c-3.033,3.417 -7.017,5.125 -11.95,5.125c-4.9,0 -8.9,-1.516 -12,-4.55c-3.1,-3.033 -4.65,-6.666 -4.65,-10.9c0,-4.833 1.55,-8.783 4.65,-11.85c3.1,-3.066 7.067,-4.6 11.9,-4.6c3.167,0 5.983,0.684 8.45,2.05c2.467,1.367 4.408,3.175 5.825,5.425c1.417,2.25 2.125,4.659 2.125,7.225l-3.9,0c0,-2.9 -0.725,-5.6 -2.175,-8.1c-1.45,-2.5 -3.5,-4.525 -6.15,-6.075c-2.65,-1.55 -5.758,-2.325 -9.325,-2.325c-4.133,0 -7.9,1.225 -11.3,3.675c-3.4,2.45 -6.3,5.859 -8.7,10.225c-2.4,4.367 -4.258,9.392 -5.575,15.075c-1.317,5.684 -1.975,11.775 -1.975,18.275l-2.3,0Zm2.3,-49.35l0,88.1l15.55,0l0,3.9l-56.9,0l0,-3.9l13.6,0l0,-84.2l-13.6,0l0,-3.9l41.35,0Z" style="fill:#ff1e52;fill-rule:nonzero;"/><path d="M396.1,177.027c-4.3,0 -8.133,-0.616 -11.5,-1.85c-3.367,-1.233 -6.025,-3.158 -7.975,-5.775c-1.95,-2.616 -2.925,-5.991 -2.925,-10.125l0,-45.15c0,-4.8 -0.458,-9.408 -1.375,-13.825c-0.917,-4.416 -2.725,-8.025 -5.425,-10.825c-2.7,-2.8 -6.717,-4.2 -12.05,-4.2c-2.8,0 -5.825,0.317 -9.075,0.95c-3.25,0.634 -6.325,1.65 -9.225,3.05c-2.9,1.4 -5.275,3.209 -7.125,5.425c-1.85,2.217 -2.775,4.925 -2.775,8.125l-4.7,0c0,-4.166 1.575,-7.541 4.725,-10.125c3.15,-2.583 6.808,-3.875 10.975,-3.875c4.367,0 8.192,1.167 11.475,3.5c3.283,2.334 4.925,5.7 4.925,10.1c0,4.734 -1.675,8.317 -5.025,10.75c-3.35,2.434 -7.142,3.65 -11.375,3.65c-4.567,0 -8.358,-1.25 -11.375,-3.75c-3.017,-2.5 -4.525,-5.916 -4.525,-10.25c0,-3.733 1.1,-6.95 3.3,-9.65c2.2,-2.7 5.133,-4.916 8.8,-6.65c3.667,-1.733 7.742,-3.016 12.225,-3.85c4.483,-0.833 8.992,-1.25 13.525,-1.25c10.2,0 18.358,1.425 24.475,4.275c6.117,2.85 10.542,6.742 13.275,11.675c2.733,4.934 4.1,10.517 4.1,16.75l0,48.05c0,2.234 0.45,4.117 1.35,5.65c0.9,1.534 2.583,2.3 5.05,2.3c1.633,0 3.6,-0.65 5.9,-1.95c2.3,-1.3 4.133,-3.283 5.5,-5.95l2.35,2.55c-1.9,3.834 -5.108,6.834 -9.625,9c-4.517,2.167 -9.808,3.25 -15.875,3.25Zm-52.85,0c-8.667,0 -15.583,-2.216 -20.75,-6.65c-5.167,-4.433 -7.75,-10.45 -7.75,-18.05c0,-8.933 3.875,-15.95 11.625,-21.05c7.75,-5.1 18.725,-7.65 32.925,-7.65l23.7,0l0,3.4l-17.3,0c-5.033,0 -9.083,1.159 -12.15,3.475c-3.067,2.317 -5.292,5.175 -6.675,8.575c-1.383,3.4 -2.075,6.767 -2.075,10.1c0,3.167 0.417,6.05 1.25,8.65c0.833,2.6 2.108,4.675 3.825,6.225c1.717,1.55 3.892,2.325 6.525,2.325c2.833,0 5.567,-0.983 8.2,-2.95c2.633,-1.966 4.808,-5 6.525,-9.1c1.717,-4.1 2.575,-9.316 2.575,-15.65l2.5,0c0,7.8 -1.333,14.567 -4,20.3c-2.667,5.734 -6.458,10.175 -11.375,13.325c-4.917,3.15 -10.775,4.725 -17.575,4.725Z" style="fill:#ff1e52;fill-rule:nonzero;"/><path d="M476.4,176.427c-6.467,0 -11.408,-1.083 -14.825,-3.25c-3.417,-2.166 -5.767,-5.108 -7.05,-8.825c-1.283,-3.716 -1.925,-7.908 -1.925,-12.575l0,-88.75c4.5,0 9.408,-0.508 14.725,-1.525c5.317,-1.016 9.725,-2.508 13.225,-4.475l0,97.9c0,5 0.592,8.525 1.775,10.575c1.183,2.05 3.175,3.075 5.975,3.075c2.933,0 5.883,-1.241 8.85,-3.725c2.967,-2.483 5.4,-5.858 7.3,-10.125l3.5,1.75c-2.533,5.9 -6.367,10.7 -11.5,14.4c-5.133,3.7 -11.817,5.55 -20.05,5.55Zm-37.8,-89.5l0,-3.9l63.35,0l0,3.9l-63.35,0Z" style="fill:#ff1e52;fill-rule:nonzero;"/><path d="M606.3,177.027c-4.3,0 -8.133,-0.616 -11.5,-1.85c-3.367,-1.233 -6.025,-3.158 -7.975,-5.775c-1.95,-2.616 -2.925,-5.991 -2.925,-10.125l0,-45.15c0,-4.8 -0.458,-9.408 -1.375,-13.825c-0.917,-4.416 -2.725,-8.025 -5.425,-10.825c-2.7,-2.8 -6.717,-4.2 -12.05,-4.2c-2.8,0 -5.825,0.317 -9.075,0.95c-3.25,0.634 -6.325,1.65 -9.225,3.05c-2.9,1.4 -5.275,3.209 -7.125,5.425c-1.85,2.217 -2.775,4.925 -2.775,8.125l-4.7,0c0,-4.166 1.575,-7.541 4.725,-10.125c3.15,-2.583 6.808,-3.875 10.975,-3.875c4.367,0 8.192,1.167 11.475,3.5c3.283,2.334 4.925,5.7 4.925,10.1c0,4.734 -1.675,8.317 -5.025,10.75c-3.35,2.434 -7.142,3.65 -11.375,3.65c-4.567,0 -8.358,-1.25 -11.375,-3.75c-3.017,-2.5 -4.525,-5.916 -4.525,-10.25c0,-3.733 1.1,-6.95 3.3,-9.65c2.2,-2.7 5.133,-4.916 8.8,-6.65c3.667,-1.733 7.742,-3.016 12.225,-3.85c4.483,-0.833 8.992,-1.25 13.525,-1.25c10.2,0 18.358,1.425 24.475,4.275c6.117,2.85 10.542,6.742 13.275,11.675c2.733,4.934 4.1,10.517 4.1,16.75l0,48.05c0,2.234 0.45,4.117 1.35,5.65c0.9,1.534 2.583,2.3 5.05,2.3c1.633,0 3.6,-0.65 5.9,-1.95c2.3,-1.3 4.133,-3.283 5.5,-5.95l2.35,2.55c-1.9,3.834 -5.108,6.834 -9.625,9c-4.517,2.167 -9.808,3.25 -15.875,3.25Zm-52.85,0c-8.667,0 -15.583,-2.216 -20.75,-6.65c-5.167,-4.433 -7.75,-10.45 -7.75,-18.05c0,-8.933 3.875,-15.95 11.625,-21.05c7.75,-5.1 18.725,-7.65 32.925,-7.65l23.7,0l0,3.4l-17.3,0c-5.033,0 -9.083,1.159 -12.15,3.475c-3.067,2.317 -5.292,5.175 -6.675,8.575c-1.383,3.4 -2.075,6.767 -2.075,10.1c0,3.167 0.417,6.05 1.25,8.65c0.833,2.6 2.108,4.675 3.825,6.225c1.717,1.55 3.892,2.325 6.525,2.325c2.833,0 5.567,-0.983 8.2,-2.95c2.633,-1.966 4.808,-5 6.525,-9.1c1.717,-4.1 2.575,-9.316 2.575,-15.65l2.5,0c0,7.8 -1.333,14.567 -4,20.3c-2.667,5.734 -6.458,10.175 -11.375,13.325c-4.917,3.15 -10.775,4.725 -17.575,4.725Z" style="fill:#ff1e52;fill-rule:nonzero;"/></g><path d="M394.775,50.138c-3.063,1.587 -6.838,0.389 -8.424,-2.674c-1.587,-3.063 -0.389,-6.838 2.674,-8.425l74,-38.338c1.803,-0.935 3.947,-0.935 5.75,-0l74,38.338c3.063,1.587 4.261,5.362 2.674,8.425c-1.586,3.063 -5.361,4.261 -8.424,2.674l-71.125,-36.849l-71.125,36.849Z" style="fill:#ff1e52;"/></g></svg>