<svg xmlns="http://www.w3.org/2000/svg" xml:space="preserve"
  style="fill-rule:evenodd;clip-rule:evenodd;stroke-linejoin:round;stroke-miterlimit:2" viewBox="0 0 632 179">
  <path
    d="M150.127 395.562c-5.842 0-10.979-.739-15.413-2.218-4.434-1.479-8.269-3.49-11.506-6.032L110.42 395h-2.802v-29.406h3.118c1.447 3.416 3.249 6.755 5.407 10.015 2.158 3.261 4.763 6.203 7.815 8.828 3.053 2.625 6.638 4.719 10.756 6.282 4.118 1.562 8.887 2.343 14.308 2.343 4.999 0 9.314-.713 12.946-2.14 3.631-1.427 6.427-3.422 8.387-5.985 1.96-2.562 2.941-5.562 2.941-9 0-3.395-1.145-6.234-3.434-8.515-2.29-2.281-5.322-4.25-9.098-5.906-3.776-1.657-7.92-3.219-12.433-4.688a291.11 291.11 0 0 1-13.538-4.781c-4.513-1.719-8.657-3.792-12.433-6.219-3.776-2.427-6.809-5.422-9.098-8.984-2.289-3.563-3.434-7.927-3.434-13.094 0-5.229 1.631-9.708 4.894-13.437 3.263-3.73 7.565-6.589 12.907-8.579 5.341-1.989 11.104-2.984 17.288-2.984 4.71 0 9.078.594 13.104 1.781 4.026 1.188 7.617 2.938 10.775 5.25l12.472-7.031h2.605v28.188h-3.078c-2.105-5.292-4.776-9.849-8.013-13.672-3.236-3.823-7.071-6.756-11.505-8.797-4.434-2.042-9.506-3.063-15.216-3.063-6.262 0-11.078 1.245-14.446 3.735-3.368 2.489-5.052 5.776-5.052 9.859 0 3.042 1.138 5.615 3.414 7.719 2.276 2.104 5.283 3.969 9.019 5.594 3.737 1.625 7.848 3.197 12.335 4.718a238.635 238.635 0 0 1 13.439 5.016c4.473 1.823 8.578 3.995 12.315 6.516 3.736 2.52 6.742 5.583 9.019 9.187 2.276 3.604 3.414 7.979 3.414 13.125 0 5.833-1.737 10.896-5.21 15.187-3.474 4.292-8.184 7.615-14.131 9.969-5.946 2.354-12.63 3.531-20.05 3.531Z"
    style="fill:#ff1e52;fill-rule:nonzero" transform="matrix(1.26679 0 0 1.6 -136.33 -453.931)" />
  <path
    d="M230.803 394.625c-5.105 0-9.006-.677-11.703-2.031-2.697-1.354-4.552-3.193-5.565-5.516-1.013-2.323-1.52-4.943-1.52-7.859V323.75c3.553 0 7.427-.318 11.624-.953 4.197-.636 7.677-1.568 10.44-2.797v61.187c0 3.125.467 5.329 1.401 6.61.934 1.281 2.507 1.922 4.717 1.922 2.316 0 4.644-.776 6.986-2.328 2.342-1.552 4.263-3.662 5.763-6.329l2.763 1.094c-2 3.688-5.026 6.688-9.078 9-4.053 2.313-9.329 3.469-15.828 3.469Zm-29.839-55.937v-2.438h50.008v2.438h-50.008Z"
    style="fill:#ff1e52;fill-rule:nonzero" transform="matrix(1.26679 0 0 1.6 -133.83 -453.931)" />
  <path
    d="M294.744 367.094c0-4.188.454-8.193 1.362-12.016.908-3.823 2.322-7.239 4.243-10.25 1.921-3.01 4.401-5.39 7.44-7.14 3.039-1.75 6.664-2.625 10.874-2.625 3.658 0 6.736.619 9.236 1.859 2.5 1.239 4.388 2.838 5.664 4.797 1.276 1.958 1.914 4.01 1.914 6.156 0 2.896-1.197 5.411-3.592 7.547-2.394 2.135-5.539 3.203-9.433 3.203-3.868 0-7.025-.948-9.473-2.844-2.447-1.896-3.67-4.166-3.67-6.812 0-3.021 1.223-5.49 3.67-7.406 2.448-1.917 5.579-2.875 9.394-2.875 2.5 0 4.723.427 6.671 1.281 1.947.854 3.48 1.984 4.598 3.39 1.118 1.407 1.677 2.912 1.677 4.516h-3.078c0-1.812-.573-3.5-1.717-5.062-1.145-1.563-2.763-2.829-4.855-3.797-2.092-.969-4.546-1.453-7.361-1.453-3.263 0-6.236.765-8.92 2.296-2.684 1.532-4.974 3.662-6.868 6.391-1.895 2.729-3.362 5.87-4.401 9.422-1.039 3.552-1.559 7.359-1.559 11.422h-1.816Zm1.816-30.844v55.062h12.275v2.438h-44.917v-2.438h10.736v-52.624h-10.736v-2.438h32.642Z"
    style="fill:#ff1e52;fill-rule:nonzero" transform="matrix(1.26679 0 0 1.6 -127.23 -453.931)" />
  <path
    d="M411.772 395c-3.394 0-6.42-.385-9.078-1.156-2.657-.771-4.756-1.974-6.295-3.61-1.539-1.635-2.309-3.744-2.309-6.328v-28.218c0-3-.362-5.881-1.085-8.641-.724-2.761-2.152-5.016-4.283-6.766-2.131-1.75-5.302-2.625-9.512-2.625-2.211 0-4.598.198-7.164.594a35.492 35.492 0 0 0-7.282 1.906c-2.289.875-4.164 2.005-5.625 3.391-1.46 1.385-2.19 3.078-2.19 5.078h-3.71c0-2.604 1.243-4.714 3.73-6.328 2.486-1.615 5.374-2.422 8.663-2.422 3.447 0 6.467.729 9.059 2.188 2.591 1.458 3.887 3.562 3.887 6.312 0 2.958-1.322 5.198-3.966 6.719-2.645 1.521-5.638 2.281-8.98 2.281-3.605 0-6.598-.781-8.979-2.344-2.382-1.562-3.572-3.698-3.572-6.406 0-2.333.868-4.344 2.605-6.031 1.736-1.688 4.052-3.073 6.946-4.156 2.895-1.084 6.112-1.886 9.651-2.407a73.206 73.206 0 0 1 10.676-.781c8.052 0 14.492.891 19.321 2.672 4.828 1.781 8.321 4.213 10.479 7.297 2.158 3.083 3.237 6.573 3.237 10.469v30.031c0 1.396.355 2.573 1.065 3.531.711.958 2.04 1.437 3.987 1.437 1.289 0 2.842-.406 4.657-1.218a9.87 9.87 0 0 0 4.342-3.719l1.855 1.594c-1.5 2.396-4.032 4.271-7.598 5.625-3.565 1.354-7.743 2.031-12.532 2.031Zm-41.719 0c-6.842 0-12.302-1.385-16.38-4.156-4.079-2.771-6.118-6.532-6.118-11.282 0-5.583 3.059-9.968 9.177-13.156 6.118-3.187 14.781-4.781 25.991-4.781h18.708v2.125h-13.656c-3.974 0-7.171.724-9.591 2.172-2.421 1.448-4.178 3.234-5.27 5.359-1.092 2.125-1.638 4.229-1.638 6.313 0 1.979.329 3.781.987 5.406.658 1.625 1.664 2.922 3.02 3.891 1.355.968 3.072 1.453 5.15 1.453 2.237 0 4.395-.615 6.473-1.844 2.079-1.229 3.796-3.125 5.151-5.688 1.355-2.562 2.033-5.822 2.033-9.781h1.973c0 4.875-1.052 9.104-3.157 12.688-2.105 3.583-5.098 6.359-8.98 8.328-3.881 1.969-8.505 2.953-13.873 2.953Z"
    style="fill:#ff1e52;fill-rule:nonzero" transform="matrix(1.26679 0 0 1.6 -125.53 -453.931)" />
  <path
    d="M468.254 394.625c-5.105 0-9.006-.677-11.703-2.031-2.697-1.354-4.552-3.193-5.565-5.516-1.013-2.323-1.52-4.943-1.52-7.859V323.75c3.552 0 7.427-.318 11.624-.953 4.197-.636 7.677-1.568 10.44-2.797v61.187c0 3.125.467 5.329 1.401 6.61.934 1.281 2.506 1.922 4.717 1.922 2.315 0 4.644-.776 6.986-2.328 2.342-1.552 4.263-3.662 5.762-6.329l2.763 1.094c-2 3.688-5.026 6.688-9.078 9-4.052 2.313-9.328 3.469-15.827 3.469Zm-29.839-55.937v-2.438h50.008v2.438h-50.008Z"
    style="fill:#ff1e52;fill-rule:nonzero" transform="matrix(1.26679 0 0 1.6 -116.78 -453.931)" />
  <path
    d="M567.915 395c-3.394 0-6.42-.385-9.078-1.156-2.657-.771-4.756-1.974-6.295-3.61-1.54-1.635-2.309-3.744-2.309-6.328v-28.218c0-3-.362-5.881-1.086-8.641-.723-2.761-2.151-5.016-4.282-6.766-2.132-1.75-5.302-2.625-9.512-2.625-2.211 0-4.599.198-7.164.594a35.492 35.492 0 0 0-7.282 1.906c-2.29.875-4.164 2.005-5.625 3.391-1.46 1.385-2.19 3.078-2.19 5.078h-3.711c0-2.604 1.244-4.714 3.73-6.328 2.487-1.615 5.375-2.422 8.664-2.422 3.447 0 6.466.729 9.058 2.188 2.592 1.458 3.888 3.562 3.888 6.312 0 2.958-1.322 5.198-3.967 6.719-2.644 1.521-5.637 2.281-8.979 2.281-3.605 0-6.598-.781-8.979-2.344-2.382-1.562-3.572-3.698-3.572-6.406 0-2.333.868-4.344 2.605-6.031 1.736-1.688 4.052-3.073 6.946-4.156 2.895-1.084 6.111-1.886 9.651-2.407a73.206 73.206 0 0 1 10.676-.781c8.052 0 14.492.891 19.321 2.672 4.828 1.781 8.321 4.213 10.479 7.297 2.158 3.083 3.236 6.573 3.236 10.469v30.031c0 1.396.356 2.573 1.066 3.531.711.958 2.039 1.437 3.987 1.437 1.289 0 2.841-.406 4.657-1.218a9.87 9.87 0 0 0 4.342-3.719l1.855 1.594c-1.5 2.396-4.033 4.271-7.598 5.625-3.566 1.354-7.743 2.031-12.532 2.031Zm-41.719 0c-6.842 0-12.302-1.385-16.38-4.156-4.079-2.771-6.118-6.532-6.118-11.282 0-5.583 3.059-9.968 9.176-13.156 6.118-3.187 14.782-4.781 25.991-4.781h18.709v2.125h-13.656c-3.974 0-7.171.724-9.592 2.172-2.42 1.448-4.177 3.234-5.269 5.359-1.092 2.125-1.638 4.229-1.638 6.313 0 1.979.329 3.781.987 5.406.658 1.625 1.664 2.922 3.019 3.891 1.355.968 3.072 1.453 5.151 1.453 2.237 0 4.394-.615 6.473-1.844 2.079-1.229 3.796-3.125 5.151-5.688 1.355-2.562 2.033-5.822 2.033-9.781h1.973c0 4.875-1.052 9.104-3.157 12.688-2.105 3.583-5.099 6.359-8.98 8.328-3.881 1.969-8.506 2.953-13.873 2.953Z"
    style="fill:#ff1e52;fill-rule:nonzero" transform="matrix(1.26679 0 0 1.6 -113.13 -453.931)" />
  <path
    d="M884.812 602.49a7.294 7.294 0 0 1-9.828-3.12 7.293 7.293 0 0 1 3.12-9.828l74-38.339a7.29 7.29 0 0 1 6.708 0l73.998 38.339c3.58 1.851 4.97 6.255 3.12 9.828a7.294 7.294 0 0 1-9.83 3.12l-70.642-36.601-70.646 36.601Z"
    style="fill:#ff1e52" transform="translate(-489.56 -550.386)" />
</svg>
