<svg xmlns="http://www.w3.org/2000/svg" xml:space="preserve" style="fill-rule:evenodd" viewBox="0 0 632 179">
  <g fill="currentColor" fill-rule="evenodd" stroke-linejoin="round" stroke-miterlimit="2">
    <path fill-rule="nonzero"
      d="M53.85 178.968q-11.101 0-19.526-3.549t-14.575-9.65l-16.2 12.3h-3.55v-47.05h3.95a109.5 109.5 0 0 0 6.85 16.024q4.101 7.826 9.9 14.125t13.625 10.051q7.825 3.75 18.126 3.75 9.498 0 16.4-3.425 6.9-3.425 10.624-9.576 3.725-6.148 3.726-14.4 0-8.149-4.35-13.624t-11.526-9.45-15.75-7.5a368.775 465.776 0 0 1-17.15-7.65q-8.575-4.125-15.75-9.95T7.15 85.019 2.8 64.07q0-12.55 6.2-21.5t16.35-13.726q10.15-4.774 21.9-4.774 8.95 0 16.6 2.85t13.65 8.4l15.8-11.25h3.3v45.1h-3.9q-4-12.7-10.15-21.874Q76.4 38.12 67.975 33.22T48.7 28.32q-11.9 0-18.3 5.976Q24 40.27 24 50.07q0 7.3 4.325 12.35t11.425 8.95 15.626 7.55A302.3 381.816 0 0 1 72.4 86.945Q80.9 91.32 88 97.371q7.099 6.049 11.426 14.699 4.325 8.649 4.325 21 0 14-6.6 24.3-6.601 10.3-17.901 15.95t-25.4 5.65m104.699-1.501q-9.7 0-14.825-3.25t-7.05-8.825-1.926-12.575V64.07q6.751 0 14.726-1.525 7.974-1.526 13.225-4.475v97.9q0 7.5 1.775 10.575t5.975 3.075q4.4 0 8.85-3.724 4.45-3.726 7.3-10.127l3.5 1.75q-3.8 8.851-11.5 14.4-7.7 5.551-20.05 5.551m-37.8-89.5v-3.9h63.35v3.9zm125.4 45.45q0-10.052 1.725-19.226 1.725-9.175 5.375-16.4t9.425-11.424q5.775-4.2 13.775-4.2 6.95-.001 11.7 2.974t7.175 7.675 2.425 9.85q0 6.95-4.55 12.075t-11.95 5.125q-7.35 0-12-4.55t-4.65-10.9q0-7.25 4.65-11.85t11.9-4.6q4.75 0 8.45 2.05 3.702 2.05 5.825 5.424 2.125 3.377 2.125 7.226h-3.9q0-4.35-2.175-8.1t-6.15-6.074T276 86.17q-6.2 0-11.3 3.673-5.1 3.677-8.7 10.226t-5.575 15.075q-1.975 8.525-1.975 18.275zm2.3-49.351v88.1H264v3.9h-56.9v-3.9h13.6v-84.2h-13.6v-3.9zm147.65 94q-6.45 0-11.5-1.85t-7.975-5.776q-2.925-3.924-2.925-10.124v-45.15q0-7.2-1.374-13.825-1.376-6.625-5.426-10.825t-12.05-4.2q-4.2 0-9.075.95a44.96 56.787 0 0 0-9.225 3.05q-4.35 2.1-7.125 5.425t-2.775 8.125h-4.7q0-6.25 4.726-10.125 4.724-3.876 10.974-3.875 6.55 0 11.476 3.5 4.923 3.5 4.924 10.1 0 7.1-5.024 10.75-5.025 3.65-11.376 3.65-6.85 0-11.375-3.75t-4.525-10.25q0-5.6 3.3-9.65t8.8-6.65 12.225-3.85a92.737 117.13 0 0 1 13.525-1.25q15.3 0 24.475 4.275 9.174 4.274 13.275 11.675 4.1 7.4 4.1 16.75v48.05q0 3.35 1.35 5.65t5.05 2.3q2.45 0 5.9-1.95a12.503 15.792 0 0 0 5.5-5.95l2.35 2.55q-2.85 5.751-9.625 9-6.775 3.25-15.875 3.25m-52.85 0q-13 0-20.75-6.65t-7.75-18.05q0-13.4 11.626-21.05 11.624-7.65 32.925-7.65h23.699v3.4h-17.3q-7.551 0-12.15 3.475t-6.675 8.575-2.075 10.1q0 4.75 1.25 8.65t3.826 6.226q2.574 2.323 6.524 2.324 4.25 0 8.2-2.95t6.525-9.1 2.575-15.65h2.5q0 11.7-4 20.3t-11.375 13.325-17.575 4.725m133.151-.6q-9.701 0-14.826-3.25-5.124-3.25-7.05-8.825-1.925-5.576-1.925-12.575V64.07q6.75 0 14.725-1.525 7.975-1.526 13.225-4.475v97.9q0 7.5 1.775 10.575t5.976 3.075q4.399 0 8.85-3.724 4.45-3.726 7.299-10.127l3.5 1.75q-3.8 8.851-11.5 14.4-7.7 5.551-20.05 5.551m-37.8-89.5v-3.9h63.35v3.9zm167.7 90.099q-6.45 0-11.5-1.85t-7.974-5.776q-2.926-3.924-2.925-10.124v-45.15q0-7.2-1.376-13.825T577.1 90.52q-4.051-4.2-12.05-4.2-4.202 0-9.075.95a44.96 56.787 0 0 0-9.225 3.05q-4.35 2.1-7.126 5.425-2.775 3.325-2.774 8.125h-4.701q0-6.25 4.725-10.125 4.726-3.876 10.975-3.875 6.55 0 11.475 3.5t4.925 10.1q0 7.1-5.025 10.75-5.024 3.65-11.375 3.65-6.85 0-11.374-3.75-4.526-3.75-4.525-10.25 0-5.6 3.3-9.65t8.799-6.65 12.226-3.85a92.737 117.13 0 0 1 13.524-1.25q15.3 0 24.476 4.275 9.173 4.274 13.274 11.675 4.1 7.4 4.1 16.75v48.05q0 3.35 1.35 5.65t5.05 2.3q2.45 0 5.9-1.95a12.503 15.792 0 0 0 5.5-5.95l2.35 2.55q-2.85 5.751-9.625 9-6.775 3.25-15.875 3.25m-52.85 0q-13 0-20.75-6.65t-7.75-18.05q0-13.4 11.625-21.05t32.925-7.65h23.7v3.4h-17.3q-7.55 0-12.15 3.475t-6.675 8.575-2.075 10.1q0 4.75 1.25 8.65t3.825 6.226q2.574 2.323 6.525 2.324 4.25 0 8.2-2.95 3.951-2.95 6.525-9.1 2.576-6.15 2.576-15.65h2.499q0 11.7-4 20.3t-11.375 13.325-17.574 4.725">
    </path>
    <path
      d="M395.252 52.104a7.294 7.294 0 0 1-9.828-3.12 7.293 7.293 0 0 1 3.12-9.828l74-38.339a7.29 7.29 0 0 1 6.708 0l73.998 38.339c3.58 1.851 4.97 6.255 3.12 9.828a7.294 7.294 0 0 1-9.83 3.12l-70.642-36.601z">
    </path>
  </g>
</svg>
