<?xml version="1.0" encoding="UTF-8" standalone="no"?>
<!DOCTYPE svg PUBLIC "-//W3C//DTD SVG 1.1//EN" "http://www.w3.org/Graphics/SVG/1.1/DTD/svg11.dtd">
<svg width="100%" height="100%" viewBox="0 0 632 179" version="1.1" xmlns="http://www.w3.org/2000/svg" xmlns:xlink="http://www.w3.org/1999/xlink" xml:space="preserve" xmlns:serif="http://www.serif.com/" style="fill-rule:evenodd;clip-rule:evenodd;stroke-linejoin:round;stroke-miterlimit:2;">
    <g transform="matrix(1,0,0,1,1580,-261.031)">
        <g transform="matrix(1.83601,0,0,1.2064,-2069.56,-284.355)">
            <g transform="matrix(0.689969,0,0,1.32626,192.39,75.808)">
                <path d="M150.127,395.562C144.285,395.562 139.148,394.823 134.714,393.344C130.28,391.865 126.445,389.854 123.208,387.312L110.42,395L107.618,395L107.618,365.594L110.736,365.594C112.183,369.01 113.985,372.349 116.143,375.609C118.301,378.87 120.906,381.812 123.958,384.437C127.011,387.062 130.596,389.156 134.714,390.719C138.832,392.281 143.601,393.062 149.022,393.062C154.021,393.062 158.336,392.349 161.968,390.922C165.599,389.495 168.395,387.5 170.355,384.937C172.315,382.375 173.296,379.375 173.296,375.937C173.296,372.542 172.151,369.703 169.862,367.422C167.572,365.141 164.54,363.172 160.764,361.516C156.988,359.859 152.844,358.297 148.331,356.828C143.818,355.359 139.305,353.766 134.793,352.047C130.28,350.328 126.136,348.255 122.36,345.828C118.584,343.401 115.551,340.406 113.262,336.844C110.973,333.281 109.828,328.917 109.828,323.75C109.828,318.521 111.459,314.042 114.722,310.313C117.985,306.583 122.287,303.724 127.629,301.734C132.97,299.745 138.733,298.75 144.917,298.75C149.627,298.75 153.995,299.344 158.021,300.531C162.047,301.719 165.638,303.469 168.796,305.781L181.268,298.75L183.873,298.75L183.873,326.938L180.795,326.938C178.69,321.646 176.019,317.089 172.782,313.266C169.546,309.443 165.711,306.51 161.277,304.469C156.843,302.427 151.771,301.406 146.061,301.406C139.799,301.406 134.983,302.651 131.615,305.141C128.247,307.63 126.563,310.917 126.563,315C126.563,318.042 127.701,320.615 129.977,322.719C132.253,324.823 135.26,326.688 138.996,328.313C142.733,329.938 146.844,331.51 151.331,333.031C155.817,334.552 160.297,336.224 164.77,338.047C169.243,339.87 173.348,342.042 177.085,344.563C180.821,347.083 183.827,350.146 186.104,353.75C188.38,357.354 189.518,361.729 189.518,366.875C189.518,372.708 187.781,377.771 184.308,382.062C180.834,386.354 176.124,389.677 170.177,392.031C164.231,394.385 157.547,395.562 150.127,395.562Z" style="fill:rgb(255,30,82);fill-rule:nonzero;"/>
                <g transform="matrix(1,0,0,1,1.97349,0)">
                    <path d="M230.803,394.625C225.698,394.625 221.797,393.948 219.1,392.594C216.403,391.24 214.548,389.401 213.535,387.078C212.522,384.755 212.015,382.135 212.015,379.219L212.015,323.75C215.568,323.75 219.442,323.432 223.639,322.797C227.836,322.161 231.316,321.229 234.079,320L234.079,381.187C234.079,384.312 234.546,386.516 235.48,387.797C236.414,389.078 237.987,389.719 240.197,389.719C242.513,389.719 244.841,388.943 247.183,387.391C249.525,385.839 251.446,383.729 252.946,381.062L255.709,382.156C253.709,385.844 250.683,388.844 246.631,391.156C242.578,393.469 237.302,394.625 230.803,394.625ZM200.964,338.688L200.964,336.25L250.972,336.25L250.972,338.688L200.964,338.688Z" style="fill:rgb(255,30,82);fill-rule:nonzero;"/>
                </g>
                <g transform="matrix(1,0,0,1,7.18351,0)">
                    <path d="M294.744,367.094C294.744,362.906 295.198,358.901 296.106,355.078C297.014,351.255 298.428,347.839 300.349,344.828C302.27,341.818 304.75,339.438 307.789,337.688C310.828,335.938 314.453,335.063 318.663,335.063C322.321,335.063 325.399,335.682 327.899,336.922C330.399,338.161 332.287,339.76 333.563,341.719C334.839,343.677 335.477,345.729 335.477,347.875C335.477,350.771 334.28,353.286 331.885,355.422C329.491,357.557 326.346,358.625 322.452,358.625C318.584,358.625 315.427,357.677 312.979,355.781C310.532,353.885 309.309,351.615 309.309,348.969C309.309,345.948 310.532,343.479 312.979,341.563C315.427,339.646 318.558,338.688 322.373,338.688C324.873,338.688 327.096,339.115 329.044,339.969C330.991,340.823 332.524,341.953 333.642,343.359C334.76,344.766 335.319,346.271 335.319,347.875L332.241,347.875C332.241,346.063 331.668,344.375 330.524,342.813C329.379,341.25 327.761,339.984 325.669,339.016C323.577,338.047 321.123,337.563 318.308,337.563C315.045,337.563 312.072,338.328 309.388,339.859C306.704,341.391 304.414,343.521 302.52,346.25C300.625,348.979 299.158,352.12 298.119,355.672C297.08,359.224 296.56,363.031 296.56,367.094L294.744,367.094ZM296.56,336.25L296.56,391.312L308.835,391.312L308.835,393.75L263.918,393.75L263.918,391.312L274.654,391.312L274.654,338.688L263.918,338.688L263.918,336.25L296.56,336.25Z" style="fill:rgb(255,30,82);fill-rule:nonzero;"/>
                </g>
                <g transform="matrix(1,0,0,1,8.52549,0)">
                    <path d="M411.772,395C408.378,395 405.352,394.615 402.694,393.844C400.037,393.073 397.938,391.87 396.399,390.234C394.86,388.599 394.09,386.49 394.09,383.906L394.09,355.688C394.09,352.688 393.728,349.807 393.005,347.047C392.281,344.286 390.853,342.031 388.722,340.281C386.591,338.531 383.42,337.656 379.21,337.656C376.999,337.656 374.612,337.854 372.046,338.25C369.48,338.646 367.053,339.281 364.764,340.156C362.475,341.031 360.6,342.161 359.139,343.547C357.679,344.932 356.949,346.625 356.949,348.625L353.239,348.625C353.239,346.021 354.482,343.911 356.969,342.297C359.455,340.682 362.343,339.875 365.632,339.875C369.079,339.875 372.099,340.604 374.691,342.063C377.282,343.521 378.578,345.625 378.578,348.375C378.578,351.333 377.256,353.573 374.612,355.094C371.967,356.615 368.974,357.375 365.632,357.375C362.027,357.375 359.034,356.594 356.653,355.031C354.271,353.469 353.081,351.333 353.081,348.625C353.081,346.292 353.949,344.281 355.686,342.594C357.422,340.906 359.738,339.521 362.632,338.438C365.527,337.354 368.744,336.552 372.283,336.031C375.822,335.51 379.381,335.25 382.959,335.25C391.011,335.25 397.451,336.141 402.28,337.922C407.108,339.703 410.601,342.135 412.759,345.219C414.917,348.302 415.996,351.792 415.996,355.688L415.996,385.719C415.996,387.115 416.351,388.292 417.061,389.25C417.772,390.208 419.101,390.687 421.048,390.687C422.337,390.687 423.89,390.281 425.705,389.469C427.521,388.656 428.968,387.417 430.047,385.75L431.902,387.344C430.402,389.74 427.87,391.615 424.304,392.969C420.739,394.323 416.561,395 411.772,395ZM370.053,395C363.211,395 357.751,393.615 353.673,390.844C349.594,388.073 347.555,384.312 347.555,379.562C347.555,373.979 350.614,369.594 356.732,366.406C362.85,363.219 371.513,361.625 382.723,361.625L401.431,361.625L401.431,363.75L387.775,363.75C383.801,363.75 380.604,364.474 378.184,365.922C375.763,367.37 374.006,369.156 372.914,371.281C371.822,373.406 371.276,375.51 371.276,377.594C371.276,379.573 371.605,381.375 372.263,383C372.921,384.625 373.927,385.922 375.283,386.891C376.638,387.859 378.355,388.344 380.433,388.344C382.67,388.344 384.828,387.729 386.906,386.5C388.985,385.271 390.702,383.375 392.057,380.812C393.412,378.25 394.09,374.99 394.09,371.031L396.063,371.031C396.063,375.906 395.011,380.135 392.906,383.719C390.801,387.302 387.808,390.078 383.926,392.047C380.045,394.016 375.421,395 370.053,395Z" style="fill:rgb(255,30,82);fill-rule:nonzero;"/>
                </g>
                <g transform="matrix(1,0,0,1,15.4327,0)">
                    <path d="M468.254,394.625C463.149,394.625 459.248,393.948 456.551,392.594C453.854,391.24 451.999,389.401 450.986,387.078C449.973,384.755 449.466,382.135 449.466,379.219L449.466,323.75C453.018,323.75 456.893,323.432 461.09,322.797C465.287,322.161 468.767,321.229 471.53,320L471.53,381.187C471.53,384.312 471.997,386.516 472.931,387.797C473.865,389.078 475.437,389.719 477.648,389.719C479.963,389.719 482.292,388.943 484.634,387.391C486.976,385.839 488.897,383.729 490.396,381.062L493.159,382.156C491.159,385.844 488.133,388.844 484.081,391.156C480.029,393.469 474.753,394.625 468.254,394.625ZM438.415,338.688L438.415,336.25L488.423,336.25L488.423,338.688L438.415,338.688Z" style="fill:rgb(255,30,82);fill-rule:nonzero;"/>
                </g>
                <g transform="matrix(1,0,0,1,18.314,0)">
                    <path d="M567.915,395C564.521,395 561.495,394.615 558.837,393.844C556.18,393.073 554.081,391.87 552.542,390.234C551.002,388.599 550.233,386.49 550.233,383.906L550.233,355.688C550.233,352.688 549.871,349.807 549.147,347.047C548.424,344.286 546.996,342.031 544.865,340.281C542.733,338.531 539.563,337.656 535.353,337.656C533.142,337.656 530.754,337.854 528.189,338.25C525.623,338.646 523.196,339.281 520.907,340.156C518.617,341.031 516.743,342.161 515.282,343.547C513.822,344.932 513.092,346.625 513.092,348.625L509.381,348.625C509.381,346.021 510.625,343.911 513.111,342.297C515.598,340.682 518.486,339.875 521.775,339.875C525.222,339.875 528.241,340.604 530.833,342.063C533.425,343.521 534.721,345.625 534.721,348.375C534.721,351.333 533.399,353.573 530.754,355.094C528.11,356.615 525.117,357.375 521.775,357.375C518.17,357.375 515.177,356.594 512.796,355.031C510.414,353.469 509.224,351.333 509.224,348.625C509.224,346.292 510.092,344.281 511.829,342.594C513.565,340.906 515.881,339.521 518.775,338.438C521.67,337.354 524.886,336.552 528.426,336.031C531.965,335.51 535.524,335.25 539.102,335.25C547.154,335.25 553.594,336.141 558.423,337.922C563.251,339.703 566.744,342.135 568.902,345.219C571.06,348.302 572.138,351.792 572.138,355.688L572.138,385.719C572.138,387.115 572.494,388.292 573.204,389.25C573.915,390.208 575.243,390.687 577.191,390.687C578.48,390.687 580.032,390.281 581.848,389.469C583.664,388.656 585.111,387.417 586.19,385.75L588.045,387.344C586.545,389.74 584.012,391.615 580.447,392.969C576.881,394.323 572.704,395 567.915,395ZM526.196,395C519.354,395 513.894,393.615 509.816,390.844C505.737,388.073 503.698,384.312 503.698,379.562C503.698,373.979 506.757,369.594 512.874,366.406C518.992,363.219 527.656,361.625 538.865,361.625L557.574,361.625L557.574,363.75L543.918,363.75C539.944,363.75 536.747,364.474 534.326,365.922C531.906,367.37 530.149,369.156 529.057,371.281C527.965,373.406 527.419,375.51 527.419,377.594C527.419,379.573 527.748,381.375 528.406,383C529.064,384.625 530.07,385.922 531.425,386.891C532.78,387.859 534.497,388.344 536.576,388.344C538.813,388.344 540.97,387.729 543.049,386.5C545.128,385.271 546.845,383.375 548.2,380.812C549.555,378.25 550.233,374.99 550.233,371.031L552.206,371.031C552.206,375.906 551.154,380.135 549.049,383.719C546.944,387.302 543.95,390.078 540.069,392.047C536.188,394.016 531.563,395 526.196,395Z" style="fill:rgb(255,30,82);fill-rule:nonzero;"/>
                </g>
            </g>
            <g transform="matrix(0.54466,0,0,0.828914,0,-4.14457)">
                <path d="M884.812,602.49C881.239,604.342 876.835,602.943 874.984,599.37C873.132,595.797 874.53,591.393 878.104,589.542L952.104,551.203C954.207,550.113 956.709,550.113 958.812,551.203L1032.81,589.542C1036.39,591.393 1037.78,595.797 1035.93,599.37C1034.08,602.943 1029.68,604.342 1026.1,602.49L955.458,565.889L884.812,602.49Z" style="fill:rgb(255,30,82);"/>
            </g>
        </g>
    </g>
</svg>
