<?xml version="1.0" encoding="UTF-8" standalone="no"?>
<!DOCTYPE svg PUBLIC "-//W3C//DTD SVG 1.1//EN" "http://www.w3.org/Graphics/SVG/1.1/DTD/svg11.dtd">
<svg width="100%" height="100%" viewBox="0 0 372 372" version="1.1" xmlns="http://www.w3.org/2000/svg" xmlns:xlink="http://www.w3.org/1999/xlink" xml:space="preserve" xmlns:serif="http://www.serif.com/" style="fill-rule:evenodd;clip-rule:evenodd;stroke-linejoin:round;stroke-miterlimit:2;">
    <g id="Artboard1" transform="matrix(1.1307,0,0,1.69091,0,0)">
        <rect x="0" y="0" width="329" height="220" style="fill:none;"/>
        <g transform="matrix(0.884409,0,0,0.591398,19.2522,44.9462)">
            <path d="M0,114.188C0,98.496 2.509,84.696 7.528,72.786C12.546,60.876 19.367,50.573 27.99,41.88L1.908,7.528L1.908,0L101.677,0L101.677,8.376C90.085,12.263 78.758,17.105 67.696,22.901C56.635,28.697 46.651,35.695 37.745,43.894C28.839,52.093 21.735,61.724 16.434,72.786C11.133,83.847 8.482,96.659 8.482,111.219C8.482,124.649 10.903,136.241 15.745,145.995C20.586,155.749 27.354,163.259 36.048,168.525C44.742,173.791 54.92,176.424 66.583,176.424C78.104,176.424 87.735,173.349 95.475,167.2C103.214,161.051 109.894,152.904 115.513,142.761C121.133,132.618 126.434,121.486 131.417,109.364C136.469,97.087 141.879,84.959 147.639,72.998C153.47,60.876 160.503,49.743 168.737,39.6C176.972,29.457 187.133,21.311 199.219,15.161C211.306,9.012 226.114,5.937 243.643,5.937C261.385,5.937 276.582,10.32 289.234,19.084C301.886,27.849 311.587,39.406 318.337,53.754C325.088,68.103 328.463,83.582 328.463,100.193C328.463,112.845 326.448,124.578 322.419,135.393C318.39,146.207 312.453,155.855 304.607,164.337L328.463,197.841L328.463,204.839L232.829,204.839L232.829,196.569C250.782,190.914 266.244,183.74 279.214,175.046C292.185,166.352 302.133,156.05 309.06,144.14C315.987,132.23 319.451,118.606 319.451,103.267C319.451,86.445 315.227,73.51 306.781,64.463C298.334,55.415 287.184,50.892 273.33,50.892C263.01,50.892 254.281,53.949 247.142,60.063C240.003,66.177 233.677,74.252 228.164,84.289C222.651,94.326 217.314,105.37 212.154,117.422C206.91,129.653 201.234,141.694 195.137,153.523C188.953,165.539 181.584,176.565 173.031,186.602C164.479,196.639 154.088,204.715 141.86,210.829C129.632,216.943 114.789,220 97.33,220C77.539,220 60.363,215.335 45.802,206.005C31.242,196.675 19.968,184.022 11.981,168.048C3.994,152.074 0,134.12 0,114.188Z" style="fill:rgb(255,30,82);fill-rule:nonzero;"/>
        </g>
    </g>
</svg>
