<svg xml:space="preserve"
  style="fill-rule:evenodd;clip-rule:evenodd;stroke-linejoin:round;stroke-miterlimit:2" viewBox="0 0 329 220">
  <path
    d="M0 114.188c0-15.692 2.509-29.492 7.528-41.402 5.018-11.91 11.839-22.213 20.462-30.906L1.908 7.528V0h99.769v8.376c-11.592 3.887-22.919 8.729-33.981 14.525-11.061 5.796-21.045 12.794-29.951 20.993-8.906 8.199-16.01 17.83-21.311 28.892-5.301 11.061-7.952 23.873-7.952 38.433 0 13.43 2.421 25.022 7.263 34.776 4.841 9.754 11.609 17.264 20.303 22.53 8.694 5.266 18.872 7.899 30.535 7.899 11.521 0 21.152-3.075 28.892-9.224 7.739-6.149 14.419-14.296 20.038-24.439 5.62-10.143 10.921-21.275 15.904-33.397a681.799 681.799 0 0 1 16.222-36.366c5.831-12.122 12.864-23.255 21.098-33.398 8.235-10.143 18.396-18.289 30.482-24.439 12.087-6.149 26.895-9.224 44.424-9.224 17.742 0 32.939 4.383 45.591 13.147 12.652 8.765 22.353 20.322 29.103 34.67 6.751 14.349 10.126 29.828 10.126 46.439 0 12.652-2.015 24.385-6.044 35.2-4.029 10.814-9.966 20.462-17.812 28.944l23.856 33.504v6.998h-95.634v-8.27c17.953-5.655 33.415-12.829 46.385-21.523 12.971-8.694 22.919-18.996 29.846-30.906s10.391-25.534 10.391-40.873c0-16.822-4.224-29.757-12.67-38.804-8.447-9.048-19.597-13.571-33.451-13.571-10.32 0-19.049 3.057-26.188 9.171-7.139 6.114-13.465 14.189-18.978 24.226-5.513 10.037-10.85 21.081-16.01 33.133a563.74 563.74 0 0 1-17.017 36.101c-6.184 12.016-13.553 23.042-22.106 33.079-8.552 10.037-18.943 18.113-31.171 24.227-12.228 6.114-27.071 9.171-44.53 9.171-19.791 0-36.967-4.665-51.528-13.995-14.56-9.33-25.834-21.983-33.821-37.957C3.994 152.074 0 134.12 0 114.188Z"
    style="fill:#ff1e52;fill-rule:nonzero" />
</svg>
