<svg xmlns="http://www.w3.org/2000/svg" width="320" height="250" version="1.0">
  <path
    d="M126.5 245.342c-35.514-2.111-71.164-6.805-98.393-12.954-6.574-1.485-7.481-1.996-9.83-5.546-4.366-6.597-8.437-23.62-10.408-43.518C5.227 156.646 6.257 75.238 9.506 54c.21-1.375.88-6.22 1.488-10.765 1.996-14.922 6.692-24.538 12.78-26.168C39.64 12.817 74.11 7.345 104 4.33c24.835-2.505 89.156-2.505 114 0 23.775 2.396 42.433 5.052 61.5 8.753 15.633 3.035 16.094 3.198 20.113 7.086 3.39 3.278 4.478 5.331 6.183 11.655 5.061 18.78 7.171 41.286 7.893 84.212.893 53.037-2.147 91.583-8.411 106.648l-2.834 6.814-11.972 2.714c-26.599 6.029-61.274 10.761-93.472 12.756-14.79.917-57.56 1.144-70.5.374zM107 167v-50h42V84H23v33h42v49.333c0 27.134.3 49.634.667 50 .366.367 9.816.667 21 .667H107v-50zm146.556 37.25c7.77-20.827 10.461-28.161 14.587-39.75 2.153-6.05 4.523-12.35 5.266-14 .743-1.65 2.14-5.475 3.103-8.5.964-3.025 2.096-5.95 2.516-6.5.42-.55 1.223-2.575 1.783-4.5 1.174-4.03 4.879-14.258 11.526-31.819 2.565-6.775 4.803-13.953 4.803-14.751 0-1.23-3.226-.43-20.35-.2l-20.208.27-1.216 3.5c-1.639 4.715-7.389 23.315-10.82 35-1.535 5.225-3.601 11.975-4.592 15-.99 3.025-3.22 10.225-4.954 16-5.57 18.558-7.38 24-7.983 24-.516 0-4.246-11.338-12.503-38-1.278-4.125-3.512-11.325-4.965-16a6282.8 6282.8 0 0 1-5.252-17c-1.436-4.675-3.641-11.65-4.901-15.5l-2.29-7-21.053-.27c-11.727-.15-21.333-.299-21.333.194 0 .486 1.884 5.528 3.845 10.69A3835.6 3835.6 0 0 1 164 109.5c5.882 15.735 7.278 19.515 9.049 24.5 1.074 3.025 2.395 6.4 2.936 7.5.541 1.1 2.766 6.95 4.944 13 2.177 6.05 5.36 14.6 7.071 19 1.712 4.4 4.902 12.95 7.09 19 2.187 6.05 4.584 12.35 5.325 14 .742 1.65 1.887 4.688 2.544 6.75l1.196 3.75H248.8l4.757-12.75zM36.896 62.956l1.21-4.045 6.612.295c7.697-.688 6.446-.549 7.78 3.794 1.147 3.737.395 3.822 3.462 4.084l4.816.023-3.923-10.803C54.695 50.362 52.497 44.6 51.967 43.5c-.53-1.1-1.572-3.8-2.316-6-1.206-3.569-1.703-4-4.602-4-3.544 0-3.616.125-9.549 16.5a553.114 553.114 0 0 1-4.423 11.75L29.008 67h3.338c3.033 0 3.448-.368 4.55-4.044zm4.663-12.141c1.62-5.103 3.207-8.003 3.829-6.997.364.59 1.306 2.896 2.093 5.127L48.91 53h-4.023c-3.681 0-3.964-.185-3.33-2.185zM79.35 64.156c3.364-3.51 3.432-8.607 2.42-12.624-.386-1.536-3.618-3.816-6.857-5.394-5.93-2.89-7.608-6.16-4.118-8.028 1.54-.825 2.552-.711 4.054 1.432 1.75 2.496 4.842 1.712 6.633 1.487 1.606-.2-2.135-6.773-4.427-8-5.475-2.93-12.497.478-13.65 6.626-1.034 5.51 1.414 9.622 6.998 11.755 3.389 1.294 4.842 2.418 5.246 4.328 1.132 5.344-4.351 7.573-6.62 3.316C67.113 55.461 67.556 56 65.052 56c-3.44 0-3.5-.744-1.646 5.43 1.301 4.332 3.938 5.5 9.157 5.54 3.182.023 4.653-.586 6.787-2.814zm38.13.456c3.067-3.068 4.148-8.68 2.458-12.762-.954-2.302-2.681-3.731-6.614-5.47-4.29-1.898-5.324-2.819-5.324-4.745 0-3.296 2.487-5.305 4.5-3.635.825.685 1.5 1.895 1.5 2.689 0 .985.874 1.343 2.75 1.127 2.266-.26 2.705.645 2.496-2.816-.323-5.33-8.15-8.728-13.301-5.97-2.408 1.288-5.278 3.135-4.945 9.344.218 4.057 4.253 8.222 7.741 9.097C112.67 52.457 114 53.857 114 57c0 5.528-5.737 5-6.68 1.288-.427-1.683-1.146-1.728-3.89-1.728-1.886 0-3.43-.08-3.43.506 0 1.594 1.987 5.146 4.3 7.684 2.93 3.218 9.896 3.145 13.18-.138zM145 64.5c0-2.389.714-2.5-6-2.5h-6V52h6c6.994.14 6-.111 6-2.5s1.134-2.5-6-2.5h-6v-9h6c6.994.14 6-.111 6-2.5 0-2.491 1.367-2.5-9.5-2.5H126v34h9.5c11.008 0 9.5-.009 9.5-2.5zm24 0c0-2.389.854-2.5-6-2.5h-6V52h6c6.714 0 6-.111 6-2.5s.994-2.5-6-2.5h-6v-9h6c7.274 0 6-.111 6-2.5 0-2.491 1.367-2.78-9.5-2.5H150v34h9.5c10.587 0 9.5-.009 9.5-2.5zm13.004-8.75.004-11.25 3.455 5.5c1.9 3.025 4.936 8.082 6.746 11.238 2.939 5.124 3.639 5.74 6.541 5.75L202 67V33h-5.932l-.284 10.741-.284 10.74-6.965-10.74C182.01 33.68 181.36 33 178.285 33H175v34h7l.004-11.25zm69.271 7.99c7.63-5.82 8.656-18.49 2.086-25.762-4.24-4.693-8.99-6.419-15.534-5.644C228.481 33.441 223 39.837 223 49.636c0 6.755 2.841 12.035 8.328 15.48 4.806 3.016 15.121 2.304 19.947-1.377zM235.3 60.091c-6.287-3.934-7.998-11.272-4.012-17.194 4.56-6.773 12-7.017 17.153-1.787 3.634 3.689 3.94 8.05 2.708 11.79-2.496 7.574-9.034 9.897-15.85 7.191zm33.71-4.342.01-11.25 3.84 6c2.112 3.3 5.304 8.362 7.095 11.25 2.89 4.664 3.634 5.25 6.65 5.25H290V33h-7v21.352l-3.25-4.642c-1.788-2.553-4.918-7.357-6.957-10.676-3.407-5.546-3.993-6.034-7.25-6.034H262v34h7l.01-11.25z"
    style="fill:#ed2c2e;fill-opacity:1" />
</svg>
